# xmcd
#
# Track frame offsets:
#	150
#	11993
#	26926
#	37554
#	47244
#	56199
#	67554
#	78924
#	90489
#	103269
#
# Disc length: 1561 seconds
#
# Revision: 1
# Processed by: cddbd v1.5.2PL0 Copyright (c) Steve Scherf et al.
# Submitted via: audiograbber 1.83.01
#
DISCID=7706170a
DTITLE=Hank Snow - The Highest Bidder
DYEAR=1965
DGENRE=Country
TTITLE0=The Highest Bidder
TTITLE1=Nobody's Child
TTITLE2=Moanin'
TTITLE3=(I Wished Upon) My Little Golden Horseshoe
TTITLE4=Hula Rock
TTITLE5=One More Ride
TTITLE6=My Arms Are A House
TTITLE7=The Next Voice You Hear
TTITLE8=The Only Rose
TTITLE9=Yodeling Cowboy
EXTD=This was originaly on a LP and I have converted them to CD's
EXTT0=
EXTT1=
EXTT2=
EXTT3=
EXTT4=
EXTT5=
EXTT6=
EXTT7=
EXTT8=
EXTT9=
PLAYORDER=
